<svg width="20" height="20" viewBox="0 0 20 20" fill="none" xmlns="http://www.w3.org/2000/svg">
<path d="M11.6668 1.66663H5.00016C4.55958 1.66883 4.1378 1.8454 3.82703 2.15772C3.51627 2.47004 3.34182 2.89271 3.34183 3.33329L3.3335 16.6666C3.33349 17.1072 3.50794 17.5299 3.8187 17.8422C4.12946 18.1545 4.55125 18.3311 4.99183 18.3333H15.0002C15.4418 18.332 15.8649 18.156 16.1772 17.8437C16.4895 17.5314 16.6655 17.1082 16.6668 16.6666V6.66663L11.6668 1.66663ZM13.3335 15H6.66683V13.3333H13.3335V15ZM13.3335 11.6666H6.66683V9.99996H13.3335V11.6666ZM10.8335 7.49996V2.91663L15.4168 7.49996H10.8335Z" fill="#3C3C34"/>
</svg>
